# xmcd
#
# Track frame offsets:
#	150
#	12060
#	26947
#	43695
#	60617
#	76650
#	93987
#	108952
#	127037
#	142380
#	162217
#
# Disc length: 2391 seconds
#
# Revision: 0
# Processed by: cddbd v1.4PL0 Copyright (c) Steve Scherf et al.
# Submitted via: audiograbber 1.81.01
#
DISCID=8d09550b
DTITLE=Mango - I Grandi Successi Originali cd2
DYEAR=1900
DGENRE=pop
TTITLE0=Sentirti
TTITLE1=Fili d'aria
TTITLE2=Una danza
TTITLE3=Quasi amore
TTITLE4=Arlecchino
TTITLE5=L'acquazzone
TTITLE6=Strade del sud
TTITLE7=Tutto dun fiato
TTITLE8=Verde mare verde menta
TTITLE9=Donna magra
TTITLE10=Un tocco di sogno
EXTD=
EXTT0=
EXTT1=
EXTT2=
EXTT3=
EXTT4=
EXTT5=
EXTT6=
EXTT7=
EXTT8=
EXTT9=
EXTT10=
PLAYORDER=
